<?xml version="1.0" encoding="utf-8"?>
<!-- Generator: Adobe Illustrator 23.0.3, SVG Export Plug-In . SVG Version: 6.00 Build 0)  -->
<svg version="1.1" id="Layer_1" xmlns="http://www.w3.org/2000/svg" xmlns:xlink="http://www.w3.org/1999/xlink" x="0px" y="0px"
	 viewBox="0 0 805 86" style="enable-background:new 0 0 805 86;" xml:space="preserve">
<style type="text/css">
	.st0{fill:#FFFFFF;}
</style>
<g>
	<g>
		<path class="st0" d="M51.3,48.1c-1-0.1-1.8,0.5-2.6,0.9c-3.6,2-6.9,4.4-10.2,6.8c-3.4,2.3-6.8,4.7-10.1,6.9
			c-1.3,0.8-2.7,1.5-4,2.2c-0.8,0.4-1.8,0.6-2.7,0.6c-1.3,0-2.3-0.6-2.7-1.8c-0.3-0.6-0.5-1.2-0.7-1.9c-0.5-1.8-0.6-3.6-0.6-5.3
			c0.1-2.9,0.3-5.8,0.7-8.6c0.6-4.5,1.4-8.9,2.2-13.4c0-0.3,0.2-0.7,0.3-1l3.8-1.4c4.1-1.5,8.4-2.8,12.8-3.2
			c1.2-0.1,2.3-0.1,3.6,0.1c2,0.3,3.5,1.1,4.8,2.5c0.3,0.4,0.5,0.8,1,0.8v-1.5c-0.1-0.3-0.2-0.7-0.4-0.8c-1.3-2.2-3.2-3.6-5.6-4.2
			c-2-0.5-4-0.4-6-0.1c-3.7,0.5-7.1,1.5-10.6,2.7l-2.4,0.9c0.2-2.1,0.8-3.8,1.1-5.5l1.2-5.3c0.4-1.8,0.8-3.7,1.2-5.4
			c0.4-1.8,0.7-3.6,1.1-5.3c0.3,0,0.5-0.1,0.7-0.1l8.2-1C39.3,6,43.5,5.8,47.8,6c0.9,0,2,0.1,2.9,0.3c0.7,0.2,1.3,0.5,2,0.8
			c0.1,0,0.2,0.2,0.3,0.4c0,0.4,0,0.8-0.1,1.2l0.8,1c0.6-0.3,0.8-0.8,0.8-1.2c0.1-1.8-0.8-3.1-2.3-3.9c-0.7-0.5-1.5-0.7-2.3-0.8
			c-2.4-0.5-4.9-0.5-7.3-0.5c-2.7,0.1-5.3,0.3-8.1,0.5c-2.3,0.1-4.7,0.5-7,0.8l-1.2,0.2c-0.4-0.8-0.6-1.5-1.5-1.6
			c-1.1,0.5-0.8,2-1.8,2.7l-1.5,0.4l-5.3,1.3c-1,0.3-2.1,0.8-3,1.2c-0.8,0.4-1.2,1-1.3,1.9l0.3,0.4c0.2,0.2,0.3,0.2,0.5,0.3
			c1.3-1.1,1.3-1.1,2.7-1.6c0.3-0.1,0.6-0.2,0.8-0.2c2-0.5,3.9-0.8,6-1.2c0.2-0.1,0.4,0,0.7,0c-1.8,7.3-3.7,14.5-4.8,22l-0.3,0.6
			l-2.1,0.9c-3.3,1.3-6.4,3.2-9.2,5.4c-1.3,1-2.5,2.3-3.8,3.6c-0.6,0.7-1,1.4-1.4,2.2c-0.8,1.7-0.3,2.9,1.5,3.9c0-0.6,0-1-0.1-1.6
			c0.3-0.4,0.6-0.8,0.8-1.1c0.7-0.7,1.2-1.3,2-1.9c3.1-2.6,6.5-4.8,10.1-6.6c0.3-0.2,0.7-0.3,1.2-0.5c-0.1,0.6-0.1,0.8-0.1,1.1
			c-0.5,2.3-0.8,4.4-1.2,6.7c-0.2,0.8-0.3,1.8-0.6,2.6c-0.3,1-0.5,2.1-0.6,3.1c-0.2,2.8-0.5,5.6-0.2,8.4c0.3,1.7,0.6,3.4,1.1,4.9
			c0.6,1.8,1.7,3.2,3.1,4.3c0.4,0.4,0.8,0.7,1.2,0.9c1.4,1.2,3,1.4,4.8,1c1.2-0.3,2.4-0.8,3.5-1.4c1.5-0.8,2.9-1.7,4.2-2.7
			c2.3-1.6,4.3-3.2,6.5-4.8c2.7-2.1,5.5-4.2,8.5-6c2-1.1,3.8-2.5,6-3.2C52.6,48.8,52.6,48.8,51.3,48.1z M108.7,49.1
			c-0.1,0.1-0.2,0.2-0.2,0.3c0,0,0.1,0.1,0.2,0.1V49.1z M110.3,47.2h0.3v-0.3L110.3,47.2z M107.1,50.7l-0.3,0.3h0.3V50.7z M107.8,50
			l-0.3,0.4h0.3V50z M109,48.8L109,48.8L109,48.8L109,48.8z M108.2,49.7L108.2,49.7L108.2,49.7C108.1,49.8,108.1,49.7,108.2,49.7z
			 M108.1,49.8l-0.3,0.2h0.3V49.8z M107.4,50.5c-0.1,0.1-0.2,0.2-0.3,0.2h0.4C107.5,50.7,107.4,50.6,107.4,50.5z M105.9,52l-0.3,0.3
			h0.3V52z M106.9,50.9l-0.3,0.4h0.3V50.9z M110.9,46.7c-0.1,0.1-0.2,0.2-0.3,0.2h0.3V46.7z M106.5,51.4l-0.3,0.2h0.3V51.4z
			 M105.5,52.4l-0.3,0.2h0.3V52.4z M107.4,50.4L107.4,50.4L107.4,50.4L107.4,50.4z M109,48.9l-0.3,0.2h0.3V48.9z M110.1,47.4
			c0,0-0.1,0.1-0.2,0.1c-0.1,0.1-0.2,0.2-0.2,0.3c0.1,0,0.2-0.1,0.3-0.2C110,47.5,110.1,47.4,110.1,47.4z M106.5,51.3L106.5,51.3
			L106.5,51.3L106.5,51.3z M105.9,51.9h0.3v-0.3L105.9,51.9z M105.5,52.3L105.5,52.3L105.5,52.3L105.5,52.3z M108.4,49.4L108.4,49.4
			L108.4,49.4L108.4,49.4z M108.4,49.4l-0.3,0.3h0.3V49.4z M136.3,33.5c0.1-0.2,0.2-0.3,0.2-0.4c0.2-1.5,0.7-2.9,1.2-4.3
			c0.2-0.4,0.3-0.7,0.4-1c0.1-0.5,0-0.8-0.6-1c-0.4,0.2-0.7,0.6-1,0.8c0,0.5-0.1,0.8-0.6,1.4c0-0.7,0.2-1.1,0.6-1.4
			c0-0.7,0.1-1.3,0.1-2c-0.7-0.2-0.8,0.2-1.1,0.6c-0.7,1.4-1.1,3-1.4,4.6c-0.1,0.5,0,1,0.4,1.4C135,32.7,135.7,33.1,136.3,33.5z
			 M135.8,29.7L135.8,29.7L135.8,29.7L135.8,29.7z M161.7,50.4L161.7,50.4L161.7,50.4L161.7,50.4z M165.2,46.7
			c-0.1,0.1-0.2,0.2-0.3,0.2h0.3V46.7z M160.8,51.3L160.8,51.3L160.8,51.3L160.8,51.3z M160.2,51.9h0.3v-0.3L160.2,51.9z
			 M162.8,49.4l-0.3,0.3h0.3V49.4z M163.1,49.1c-0.1,0.1-0.2,0.2-0.2,0.3c0,0,0.1,0.1,0.2,0.1V49.1z M163.3,48.8L163.3,48.8
			L163.3,48.8L163.3,48.8z M164.7,47.2h0.3v-0.3L164.7,47.2z M162.8,49.4L162.8,49.4L162.8,49.4L162.8,49.4z M162.5,49.7L162.5,49.7
			L162.5,49.7C162.4,49.8,162.4,49.7,162.5,49.7z M160.8,51.4l-0.3,0.2h0.3V51.4z M161.7,50.5c-0.1,0.1-0.2,0.2-0.3,0.2h0.4
			C161.8,50.7,161.7,50.6,161.7,50.5z M164.5,47.4c0,0-0.1,0.1-0.2,0.1c-0.1,0.1-0.2,0.2-0.2,0.3c0.1,0,0.2-0.1,0.3-0.2
			C164.4,47.5,164.5,47.4,164.5,47.4z M161.5,50.7l-0.3,0.3h0.3V50.7z M160.2,52l-0.3,0.3h0.3V52z M161.2,50.9l-0.3,0.4h0.3V50.9z
			 M162.1,50l-0.3,0.4h0.3V50z M159.9,52.4l-0.3,0.2h0.3V52.4z M159.9,52.3L159.9,52.3L159.9,52.3L159.9,52.3z M162.4,49.8l-0.3,0.2
			h0.3V49.8z M163.3,48.9l-0.3,0.2h0.3V48.9z M206.9,52.4C206.9,52.5,206.8,52.5,206.9,52.4L206.9,52.4L206.9,52.4z M227,50.7
			l-0.3,0.3h0.3V50.7z M226.7,50.9l-0.3,0.4h0.3V50.9z M225.7,51.9h0.3v-0.3L225.7,51.9z M227.2,50.5c-0.1,0.1-0.2,0.2-0.3,0.2h0.4
			C227.3,50.7,227.2,50.6,227.2,50.5z M230.7,46.7c-0.1,0.1-0.2,0.2-0.3,0.2h0.3V46.7z M226.3,51.4l-0.3,0.2h0.3V51.4z M225.4,52.4
			l-0.3,0.2h0.3V52.4z M228.3,49.4L228.3,49.4L228.3,49.4L228.3,49.4z M227.2,50.4L227.2,50.4L227.2,50.4L227.2,50.4z M226.3,51.3
			L226.3,51.3L226.3,51.3L226.3,51.3z M228.8,48.8L228.8,48.8L228.8,48.8L228.8,48.8z M227.6,50l-0.3,0.4h0.3V50z M230.1,47.2h0.3
			v-0.3L230.1,47.2z M228.3,49.4l-0.3,0.3h0.3V49.4z M225.7,52l-0.3,0.3h0.3V52z M228,49.7L228,49.7L228,49.7
			C227.9,49.8,227.9,49.7,228,49.7z M233.5,43.7c-0.2,0.1-0.5,0.2-0.7,0.4c-0.8,0.8-1.6,1.4-2.1,2.4c0,0.1-0.1,0.1-0.1,0.1
			c0.1,0.1,0.1,0.2,0.2,0.2c0,0-0.1,0.1-0.2,0.1h0.1l-0.4,0.3c0,0.7-0.5,1-0.9,1.3v-0.7c-0.3,0.2-0.6,0.6-0.6,0.9h0.3l-0.4,0.3h0.1
			c-0.2,0.1-0.3,0.3-0.4,0.4l-0.3,0.3l-0.4,0.3h0.1l-0.1,0.1c-0.2,0.1-0.2,0.2-0.3,0.3l-0.3,0.3c-0.1,0.1-0.3,0.2-0.4,0.4v-0.1
			l-0.3,0.4l-0.4,0.3h0.1c-0.1,0.1-0.3,0.2-0.4,0.4v-0.1l-0.3,0.4l-0.4,0.3h0.1c-0.2,0.1-0.3,0.3-0.4,0.4v-0.4l-0.3,0.4
			c-0.5,0-0.8,0.2-0.9,0.6c-0.1,0.2-0.2,0.3-0.4,0.4l-1.5,0.8c-0.8,0.4-1.7,0.9-2.6,1.2c-1.1,0.4-2.3,0.5-3.2-0.5
			c-0.5-2-0.3-4.1,0.4-5.9c0.5-0.1,0.7,0.3,1,0.4c1,0.6,2.1,0.6,3.1,0c0.4-0.2,0.8-0.5,1.1-0.8c1.2-0.9,2.3-2.2,3-3.6
			c1.2-2.4,1.3-4.9,0.1-7.3c-0.3-0.5-0.6-0.9-0.9-1.2c-0.6-0.5-1.1-0.9-1.6-1.5c-0.8-0.8-1.7-1-2.7-0.7c-0.8,0.2-1.4,0.6-2,1
			c-1,0.8-2,1.7-2.6,2.8c-1.1,1.8-1.9,3.7-2.5,5.6c-0.2,0.1-0.4,0.3-0.5,0.5l-4.9,4.3c-1.8,1.6-3.6,3.1-5.4,4.6
			c-0.8,0.6-1.6,0.9-2.4,1.3c-0.9,0.5-1.9,0.7-2.9,0.5c-0.9-0.1-1.4-0.6-1.4-1.4c0-1.1,0-2.3,0.2-3.3c0.5-2.9,1.4-5.7,2.8-8.4
			l0.8-1.7h-0.3c0.5-1.4,1.4-2.4,2.5-3.4c0.4-0.3,0.8-0.5,1.3-0.3c0.2,0.3,0.3,0.7,0.6,0.9c0.3,0.3,0.6,0.4,1,0
			c0.2-0.6,0-1.1-0.4-1.5c-1.2-1.5-3.1-2.4-5.1-0.8c-0.7,0.5-1.3,1.1-1.8,1.8c-1.6,1.9-2.8,4.1-3.6,6.4l-2,1.9
			c-1.1,1.1-4.6,5-6.1,5.6c-4.7,4.3-5.4-9.6-8.9-7.3c-0.5,0.4-0.8,0.8-1.2,1.2c-1.9,1.9-3.9,5.5-5.5,7.6l-0.8,0.8
			c-0.2-0.7-0.1-1.1,0-1.7c0.3-1.6,0.9-4.9,1.1-6.6c0.1-0.7,0.1-1.2,0.1-1.9c-0.1-1-0.7-1.7-1.7-2.1l-0.3,0.6
			c-0.1,0.5-0.2,1.2-0.3,1.9c0,0,0,0-0.1,0c-0.8,0.8-1.6,1.4-2.1,2.4c0,0.1-0.1,0.1-0.1,0.1c0.1,0.1,0.1,0.2,0.2,0.2
			c0,0-0.1,0.1-0.2,0.1h0.1l-0.4,0.3c0,0.7-0.5,1-0.9,1.3v-0.7c-0.3,0.2-0.6,0.6-0.6,0.9h0.3l-0.4,0.3h0.1c-0.2,0.1-0.3,0.3-0.4,0.4
			l-0.3,0.3l-0.4,0.3h0.1l-0.1,0.1c-0.2,0.1-0.2,0.2-0.3,0.3l-0.3,0.3c-0.1,0.1-0.3,0.2-0.4,0.4v-0.1l-0.3,0.4l-0.4,0.3h0.1
			c-0.1,0.1-0.3,0.2-0.4,0.4v-0.1l-0.3,0.4l-0.4,0.3h0.1c-0.2,0.1-0.3,0.3-0.4,0.4v-0.4l-0.3,0.4c-0.5,0-0.8,0.2-0.9,0.6
			c-0.1,0.2-0.2,0.3-0.4,0.4l-1.5,0.8c-0.8,0.4-1.7,0.9-2.6,1.2c-1.1,0.4-2.3,0.5-3.2-0.5c-0.5-2-0.3-4.1,0.4-5.9
			c0.5-0.1,0.7,0.3,1,0.4c1,0.6,2.1,0.6,3.1,0c0.4-0.2,0.8-0.5,1.1-0.8c1.2-0.9,2.3-2.2,3-3.6c1.2-2.4,1.3-4.9,0.1-7.3
			c-0.3-0.5-0.6-0.9-0.9-1.2c-0.6-0.5-1.1-0.9-1.6-1.5c-0.8-0.8-1.7-1-2.7-0.7c-0.8,0.2-1.4,0.6-2,1c-1,0.8-2,1.7-2.6,2.8
			c-1,1.7-1.8,3.5-2.4,5.3c-1.6,1.8-3.4,3.3-5.1,4.8c-1.4,1.3-2.9,2.3-4.5,3.3c-1,0.6-2.2,1.1-3.3,1.4c-0.7,0.1-1.3,0.3-2-0.1
			c-0.4-0.9-0.3-1.9-0.1-2.8c0.5-2.3,1-4.7,1.9-6.9l1.1-2.7c0-0.9-0.8-1.2-1.2-1.8c-0.5-0.9-1.5-0.9-2.2-0.3c0-0.9-0.4-1.6-1.3-2.1
			l-0.7-0.5c-0.5-0.3-1-0.4-1.7-0.3c-1.2,0.3-2.3,0.8-3.4,1.7c-1.8,1.4-3.3,3.2-4.5,5.2l-3.3,6.3l-0.7,0.9v-1.5
			c0.1-1.7,0.1-3.3,0.1-4.9c0-0.6,0-1-0.1-1.5c-0.1-0.7-0.4-1.2-1-1.6l-1.2-0.9l-0.5,0.7c-0.1,0.3-0.1,0.7-0.1,0.9
			c-0.1,0.9-0.2,1.8-0.3,2.7c-0.1,0-0.1,0.1-0.2,0.1c-0.8,0.8-1.6,1.4-2.1,2.4c0,0.1-0.1,0.1-0.1,0.1c0.1,0.1,0.1,0.2,0.2,0.2
			c0,0-0.1,0.1-0.2,0.1h0.1l-0.4,0.3c0,0.7-0.5,1-0.9,1.3v-0.7c-0.3,0.2-0.6,0.6-0.6,0.9h0.3l-0.4,0.3h0.1c-0.2,0.1-0.3,0.3-0.4,0.4
			l-0.3,0.3l-0.4,0.3h0.1l-0.1,0.1c-0.2,0.1-0.2,0.2-0.3,0.3l-0.3,0.3c-0.1,0.1-0.3,0.2-0.4,0.4v-0.1l-0.3,0.4l-0.4,0.3h0.1
			c-0.1,0.1-0.3,0.2-0.4,0.4v-0.1l-0.3,0.4l-0.4,0.3h0.1c-0.2,0.1-0.3,0.3-0.4,0.4v-0.4l-0.3,0.4c-0.5,0-0.8,0.2-0.9,0.6
			c-0.1,0.2-0.2,0.3-0.4,0.4l-1.5,0.8c-0.8,0.4-1.7,0.9-2.6,1.2c-1.1,0.4-2.3,0.5-3.2-0.5c-0.5-2-0.3-4.1,0.4-5.9
			c0.5-0.1,0.7,0.3,1,0.4c1,0.6,2.1,0.6,3.1,0c0.4-0.2,0.8-0.5,1.1-0.8c1.2-0.9,2.3-2.2,3-3.6c1.2-2.4,1.3-4.9,0.1-7.3
			c-0.3-0.5-0.6-0.9-0.9-1.2c-0.6-0.5-1.1-0.9-1.6-1.5c-0.8-0.8-1.7-1-2.7-0.7c-0.8,0.2-1.4,0.6-2,1c-1,0.8-2,1.7-2.6,2.8
			c-1.1,1.8-1.9,3.7-2.5,5.6c-0.7,0.3-1.4,0.6-2.1,0.9c-1.2,0.7-2.3,1.2-3.5,1.8c-0.1-0.7-0.2-1.2-0.2-1.7c-0.2-1.9-0.8-3.5-2.3-4.9
			c-1.1-0.9-2.2-1-3.3,0c-0.6,0.6-1,1.1-1.5,1.8c-1,1.5-1.7,3-2.3,4.6l-2.7,8.9c-0.1,0.6-0.1,1-0.6,1.4c0,0.3,0.1,0.7,0,0.9
			c-0.2-0.3-0.2-0.7,0-0.9c0.1-0.5,0.2-1,0.2-1.5l2.4-14.1c0.1-1.2,0.2-2.3,0.4-3.7c0-0.9-0.4-1.6-1.3-2l-0.6-0.2
			c-0.2,0.3-0.4,0.4-0.5,0.6c-0.1,0.4-0.3,0.8-0.4,1.2c-0.5,1.6-0.8,3.3-1.2,5.1c-0.1,0.7-0.3,1.4-0.4,2.1c-0.1,0.1-0.2,0.2-0.2,0.4
			c-1.4,2.2-3,4.2-4.8,6.2c-0.6,0.6-1.1,1.1-1.9,1.7c-0.8,0.6-1.7,0.8-2.9,0.4c-1.3-1.5-1.7-3.4-2.3-5.1c1.5-2.3,6.2-6.6,8.2-7.4
			l1.3,0.3c0.2-0.5,0.1-0.8-0.2-1l-1.2-1.3c-0.8-0.5-1.4-0.2-2,0.1c-0.8,0.5-1.6,0.9-2.2,1.5c-1.5,1.2-2.7,2.5-4.1,3.8
			c-0.3,0.2-0.5,0.5-0.8,0.3c-0.6-1.9-0.7-3.8-1.3-5.5l-0.8-0.4l-0.7-1h-0.8c-0.2,0.3-0.3,0.5-0.2,0.7c-0.1,3.1,0.8,6.1,1.4,9.1
			l-0.8,1c-0.9,1.3-2.1,2.4-3,3.8c-1.1,1.6-2,3.3-3,5c-0.3,0.6-0.8,1-0.5,1.8l0.6,0.5l0.8,0.3c0.7-0.2,0.8-0.7,1-1.1
			c1.6-2.4,3.6-4.8,5.4-7.1l0.8-0.6l0.4,0.6c0.8,1.8,2.3,3.1,4.1,3.9c0.3,0.1,0.6,0.3,0.8,0.5c1.6,0.8,3.1,0.7,4.3-0.2
			c0.7-0.5,1.3-0.9,1.8-1.6c0.5-0.5,0.9-1,1.3-1.5c-1,5.6-1.7,11.3-2,17c-0.2,3.8-0.2,7.7,0.2,11.5c0.1,0.8,0.3,1.7,0.5,2.5
			c0,0.6,0.3,1,0.8,1.3l1.8,0.7c0.4-0.7,0.3-1.1,0.3-1.7c-0.2-3.4,0.1-6.7,0.7-9.9c0.9-5.7,2.2-11.3,3.5-17
			c0.8-3.7,1.9-7.1,3.5-10.5c0.7-1.2,1.3-2.3,2-3.3c0.3-0.5,0.8-1,1.5-1.2l0.3,0.8c0.6,1.6,0.5,3.4,0.4,5.2
			c-0.1,0.8-0.4,1.6-1.1,2.1L83,50.5c-1.4,1.2-2.6,2.5-3.7,4.1c-0.5,0.7-0.8,1.3-0.9,2.2c-0.1,0.8,0.3,1.5,1,1.9
			c0.9,0.4,1.8,0.4,2.6-0.2c0.8-0.5,1.4-1.1,2-1.9c0.9-1.3,1.7-2.7,2.1-4.2c0.2-0.8,0.5-1.6,0.7-2.5c1.7-1.2,3.6-2.2,5.4-3.1
			c-0.3,1.7-0.4,3.4-0.3,5.2c0.2,1.7,0.8,3.2,2.1,4.3c0.9,0.9,2,1.7,3.1,2.4c1.2,0.9,2.7,1.1,4.1,0.4c0.9-0.4,1.8-0.9,2.6-1.5
			c2.1-1.5,3.9-3.3,5.5-5.3c1.2-1.5,2.4-2.9,3.5-4.4c-0.1,1.5-0.1,2.9,0,4.4c0,0.9,0.2,1.8,0.4,2.6c0.1,0.6,0.3,1.2,0.8,1.5
			c0.8,0.4,1.5,0.8,2.4,1c0.1-0.2,0.3-0.3,0.4-0.4l0.5-1c0.3-0.8,0.6-1.8,0.9-2.6c0.9-2.7,2.2-5.3,3.6-7.9c1.3-2.2,2.8-4.1,4.9-5.8
			c0.8-0.7,1.8-1.2,2.9-1.5c0.2,0.4,0.3,0.8,0.4,1.2L131,40c-0.3,0.5-0.6,1-0.8,1.5c-1.4,3.1-1.9,6.5-1.7,9.9
			c0.2,1.6,0.9,2.9,2.3,3.7c0.4,0.3,0.8,0.5,1.1,0.7c1.2,0.9,2.5,1.1,4,0.6c0.7-0.3,1.4-0.6,2.1-0.9c1.2-0.8,2.3-1.5,3.4-2.3
			c1.7-1.5,3.3-3.1,4.8-4.6c-0.1,1.1-0.1,2.3-0.1,3.5c0.2,1.7,0.8,3.2,2.1,4.3c0.9,0.9,2,1.7,3.1,2.4c1.2,0.9,2.7,1.1,4.1,0.4
			c0.9-0.4,1.8-0.9,2.6-1.5c2.1-1.5,3.9-3.3,5.5-5.3c1-1.2,1.9-2.4,2.9-3.5c0,0.3-0.1,0.5-0.1,0.7c-0.3,1.6-0.4,3.2-0.4,4.7
			c0,1.7,0.8,2.5,2.3,3.1c0.4-0.2,0.7-0.4,0.9-0.7c0.4-0.3,0.7-0.8,0.9-1.1c1.6-2.2,3.8-5.8,5.7-7.7l1.1-1c0.1,0.1,0.1,0.2,0.2,0.2
			l0.3,1c0.7,2.7,2.4,5.3,4.9,6.1c1.1,0.4,2.3,0.4,3.4,0c1.2-0.3,2.3-0.8,3.2-1.7c0.6-0.5,1.8-1.7,2.9-3c0,0.1,0,0.2,0,0.2
			c-0.4,3.1,0.6,5.6,3.2,7.4c0.1,0.1,0.1,0.2,0.2,0.2c1.2,1.1,2.6,1.3,4.1,0.9c1.1-0.3,2.2-0.7,3-1.4c1.4-1,2.7-2.2,3.9-3.3
			c0.2-0.2,0.4-0.5,0.5-0.8c-0.1,0-0.3-0.1-0.5-0.1l1-1.1l4.6-4.1c-0.2,1.5-0.3,3.1-0.2,4.6c0.2,1.7,0.8,3.2,2.1,4.3
			c0.9,0.9,2,1.7,3.1,2.4c1.2,0.9,2.7,1.1,4.1,0.4c0.9-0.4,1.8-0.9,2.6-1.5c2.1-1.5,3.9-3.3,5.5-5.3c1.7-2.1,3.4-4.1,5-6.2
			c0.2-0.3,0.4-0.6,0.5-0.9C234.4,44.7,234.2,44,233.5,43.7z M219.9,36c0.3-0.2,0.8-0.3,1,0.2c-0.8,0.3-1.5,0.4-2.2,0.6
			C219.2,36.5,219.4,36.2,219.9,36z M220.6,40.1c0.5-0.5,0.8-0.8,1.3-1.1c0.2-0.2,0.5-0.2,0.8-0.3c0.7,1.4,0.6,2.7,0.2,4
			c-0.7,2-1.8,3.6-3.5,4.7c-0.5,0.4-1,0.6-1.6,0.7c-0.2,0.1-0.5,0-0.8-0.1c0-0.2-0.1-0.3-0.1-0.4C217.6,44.8,218.7,42.2,220.6,40.1z
			 M154.4,36c0.3-0.2,0.8-0.3,1,0.2c-0.8,0.3-1.5,0.4-2.2,0.6C153.7,36.5,154,36.2,154.4,36z M155.1,40.1c0.5-0.5,0.8-0.8,1.3-1.1
			c0.2-0.2,0.5-0.2,0.8-0.3c0.7,1.4,0.6,2.7,0.2,4c-0.7,2-1.8,3.6-3.5,4.7c-0.5,0.4-1,0.6-1.6,0.7c-0.2,0.1-0.5,0-0.8-0.1
			c0-0.2-0.1-0.3-0.1-0.4C152.1,44.8,153.2,42.2,155.1,40.1z M100.1,36c0.3-0.2,0.8-0.3,1,0.2c-0.8,0.3-1.5,0.4-2.2,0.6
			C99.3,36.5,99.6,36.2,100.1,36z M100.8,40.1c0.5-0.5,0.8-0.8,1.3-1.1c0.2-0.2,0.5-0.2,0.8-0.3c0.7,1.4,0.6,2.7,0.2,4
			c-0.7,2-1.8,3.6-3.5,4.7c-0.5,0.4-1,0.6-1.6,0.7c-0.2,0.1-0.5,0-0.8-0.1c0-0.2-0.1-0.3-0.1-0.4C97.8,44.8,98.9,42.2,100.8,40.1z
			 M81.3,55.9c0-0.6,0.2-0.9,0.8-1.2C82.1,55.3,81.7,55.6,81.3,55.9z M98,56.6c-0.1-0.1-0.3-0.1-0.4-0.1l0.1-0.1
			C97.8,56.4,97.9,56.4,98,56.6L98,56.6z M152.4,56.6c-0.1-0.1-0.3-0.1-0.4-0.1l0.1-0.1C152.2,56.4,152.3,56.4,152.4,56.6
			L152.4,56.6z M217.9,56.6c-0.1-0.1-0.3-0.1-0.4-0.1l0.1-0.1C217.7,56.4,217.8,56.4,217.9,56.6L217.9,56.6z M228.8,48.9l-0.3,0.2
			h0.3V48.9z M228.5,49.1c-0.1,0.1-0.2,0.2-0.2,0.3c0,0,0.1,0.1,0.2,0.1V49.1z M230,47.4c0,0-0.1,0.1-0.2,0.1
			c-0.1,0.1-0.2,0.2-0.2,0.3c0.1,0,0.2-0.1,0.3-0.2C229.9,47.5,230,47.4,230,47.4z M225.4,52.3L225.4,52.3L225.4,52.3L225.4,52.3z
			 M227.9,49.8l-0.3,0.2h0.3V49.8z M295.6,33.5c0.1-0.2,0.2-0.3,0.2-0.4c0.2-1.5,0.7-2.9,1.2-4.3c0.2-0.4,0.3-0.7,0.4-1
			c0.1-0.5,0-0.8-0.6-1c-0.4,0.2-0.7,0.6-1,0.8c0,0.5-0.1,0.8-0.6,1.4c0-0.7,0.2-1.1,0.6-1.4c0-0.7,0.1-1.3,0.1-2
			c-0.7-0.2-0.8,0.2-1.1,0.6c-0.7,1.4-1.1,3-1.4,4.6c-0.1,0.5,0,1,0.4,1.4C294.3,32.7,295,33.1,295.6,33.5z M295.1,29.7L295.1,29.7
			L295.1,29.7L295.1,29.7z M339.2,52.4l-0.3,0.2h0.3V52.4z M343.8,47.4c0,0-0.1,0.1-0.2,0.1c-0.1,0.1-0.2,0.2-0.2,0.3
			c0.1,0,0.2-0.1,0.3-0.2C343.7,47.5,343.8,47.4,343.8,47.4z M341.8,49.7L341.8,49.7L341.8,49.7C341.7,49.8,341.7,49.7,341.8,49.7z
			 M344.5,46.7c-0.1,0.1-0.2,0.2-0.3,0.2h0.3V46.7z M344,47.2h0.3v-0.3L344,47.2z M342.1,49.4l-0.3,0.3h0.3V49.4z M339.2,52.3
			L339.2,52.3L339.2,52.3L339.2,52.3z M342.6,48.8L342.6,48.8L342.6,48.8L342.6,48.8z M342.6,48.9l-0.3,0.2h0.3V48.9z M339.5,51.9
			h0.3v-0.3L339.5,51.9z M339.5,52l-0.3,0.3h0.3V52z M342.1,49.4L342.1,49.4L342.1,49.4L342.1,49.4z M340.1,51.3L340.1,51.3
			L340.1,51.3L340.1,51.3z M341,50.4L341,50.4L341,50.4L341,50.4z M342.4,49.1c-0.1,0.1-0.2,0.2-0.2,0.3c0,0,0.1,0.1,0.2,0.1V49.1z
			 M341.7,49.8l-0.3,0.2h0.3V49.8z M341.4,50l-0.3,0.4h0.3V50z M340.5,50.9l-0.3,0.4h0.3V50.9z M341,50.5c-0.1,0.1-0.2,0.2-0.3,0.2
			h0.4C341.1,50.7,341,50.6,341,50.5z M340.1,51.4l-0.3,0.2h0.3V51.4z M340.8,50.7l-0.3,0.3h0.3V50.7z M362.3,43.5
			c-0.5,1.6-0.7,1.8-1.9,3l-0.5,0.4c-1.7,1.5-3.6,2.7-5.5,3.8c-0.3,0.2-0.7,0.3-1,0.5l-0.3-0.8c-0.4-1.1-0.9-2.2-1.8-3.1
			c-0.4-0.5-0.8-0.9-1.2-1.5c-0.4-0.4-0.7-0.8-0.8-1.5c0.5-2.3,1.3-3.9,2.7-5.2l1.2,0.3c0.2-0.6,0.4-1,0.7-1.5
			c0.5-1.1-1-2.4-2.1-2.1c-0.4,0.1-0.7,0.3-0.9,0.5c-2,1.4-3.2,3.2-3.8,5.4c-0.2,0.8-0.3,1.5-0.2,2.2c-0.1,0-0.2,0.1-0.2,0.2
			c-0.8,0.8-1.6,1.4-2.1,2.4c0,0.1-0.1,0.1-0.1,0.1c0.1,0.1,0.1,0.2,0.2,0.2c0,0-0.1,0.1-0.2,0.1h0.1l-0.4,0.3c0,0.7-0.5,1-0.9,1.3
			v-0.7c-0.3,0.2-0.6,0.6-0.6,0.9h0.3l-0.4,0.3h0.1c-0.2,0.1-0.3,0.3-0.4,0.4l-0.3,0.3l-0.4,0.3h0.1l-0.1,0.1
			c-0.2,0.1-0.2,0.2-0.3,0.3l-0.3,0.3c-0.1,0.1-0.3,0.2-0.4,0.4v-0.1l-0.3,0.4l-0.4,0.3h0.1c-0.1,0.1-0.3,0.2-0.4,0.4v-0.1l-0.3,0.4
			l-0.4,0.3h0.1c-0.2,0.1-0.3,0.3-0.4,0.4v-0.4l-0.3,0.4c-0.5,0-0.8,0.2-0.9,0.6c-0.1,0.2-0.2,0.3-0.4,0.4l-1.5,0.8
			c-0.8,0.4-1.7,0.9-2.6,1.2c-1.1,0.4-2.3,0.5-3.2-0.5c-0.5-2-0.3-4.1,0.4-5.9c0.5-0.1,0.7,0.3,1,0.4c1,0.6,2.1,0.6,3.1,0
			c0.4-0.2,0.8-0.5,1.1-0.8c1.2-0.9,2.3-2.2,3-3.6c1.2-2.4,1.3-4.9,0.1-7.3c-0.3-0.5-0.6-0.9-0.9-1.2c-0.6-0.5-1.1-0.9-1.6-1.5
			c-0.8-0.8-1.7-1-2.7-0.7c-0.8,0.2-1.4,0.6-2,1c-1,0.8-2,1.7-2.6,2.8c-1.2,2-2.1,4.1-2.6,6.2c-0.6,0.3-1.2,0.7-1.9,0.9
			c-0.5,0.2-0.9,0.4-1.5,0.4c-0.7,0.1-1.1-0.3-1.4-0.9l-0.2-0.5c-0.3-1.1-0.4-2.3-0.1-3.6c0.4-1.4,0.8-2.8,0.8-4.2
			c-0.8-1.1-1.3-2.4-2.9-2c-0.6,0.5-0.8,1.1-0.9,1.8c-0.5,1.6-0.8,3.3-0.7,5c0.1,0.7,0,1.2-0.2,1.9c-1,2.6-2.3,5.3-3.7,7.7
			c-0.7,1.2-1.6,2.3-2.3,3.5c-0.2,0.2-0.3,0.5-0.7,0.4c-0.1-0.2-0.2-0.3-0.2-0.5c-0.1-1.6-0.3-3.2-0.3-4.9c0-2,0.1-3.9,0.1-5.9v-2.1
			c-0.1-1.1-0.7-1.9-1.6-2.4c-0.4-0.2-0.8-0.4-1.4,0c-0.5,0.6-0.5,1.1-0.5,1.7c0,0.9,0,1.7,0,2.6c-1.7,1.9-3.5,3.5-5.4,5.1
			c-1.4,1.3-2.9,2.3-4.5,3.3c-1,0.6-2.2,1.1-3.3,1.4c-0.7,0.1-1.3,0.3-2-0.1c-0.4-0.9-0.3-1.9-0.1-2.8c0.5-2.3,1-4.7,1.9-6.9
			l1.1-2.7c0-0.9-0.8-1.2-1.2-1.8c-0.6-0.9-1.7-0.9-2.3-0.1c-0.6,0.8-1,1.6-1.4,2.4c-0.3,0.7-0.6,1.4-0.8,2.2
			c-0.3,0.1-0.6,0.3-1,0.5l-3.7,2.4c-4.4,3.5-8.7,6.9-12.9,10.7c-1.7,1.4-3.4,3-5.1,4.4c-1.4,1.2-2.9,2.3-4.4,3.4
			c-0.6,0.5-1.2,0.8-2,1c-0.3,0.1-0.7-0.1-0.9-0.1c-0.8-1.3-1.2-2.7-1.5-4c-0.6-2.9-0.8-5.8-0.9-8.8c0-3.5,0.3-6.8,0.6-10.3
			c0.4-4.6,0.9-9.1,1.6-13.6c0.8-5.1,1.8-10,3.1-15c0.8-2.9,1.6-5.8,2.4-8.7c0.3-0.9,0.2-1.8-0.5-2.5c-0.6-0.1-1.1-0.2-1.8-0.4
			l-0.7,1.3c-0.4,0.8-0.8,1.7-1,2.6c-2.5,6.9-3.9,14.2-5.1,21.4c-0.5,2.9-0.8,5.8-1,8.7c-0.3,3.3-0.6,6.6-0.8,9.8
			c-0.2,3.7,0,7.2,0.6,10.9c0.3,2.1,0.8,4.1,1.5,6.1c0.8,1.9,1.8,3.4,3.4,4.6c1.2,0.9,2.4,1,3.7,0.3c0.8-0.6,1.7-1.1,2.4-1.8
			l6.5-5.7l8.3-7.5l5.7-5c0.9-0.9,1.8-1.6,2.9-2.3c-0.3,1.8-0.4,3.6-0.3,5.4c0.2,1.6,0.9,2.9,2.3,3.7c0.4,0.3,0.8,0.5,1.1,0.7
			c1.2,0.9,2.5,1.1,4,0.6c0.7-0.3,1.4-0.6,2.1-0.9c1.2-0.8,2.3-1.5,3.4-2.3c2-1.9,4-3.8,6-5.7c0,0.9,0,1.8,0,2.7
			c0,1.4,0.3,2.9,0.6,4.3c0.2,0.8,0.5,1.5,0.8,2.3c0.6,0.9,1.6,1.3,2.6,1.5c1,0.2,1.7-0.5,2.3-1.2l2.1-3l2.7-5.1
			c0.4-0.8,0.8-1.6,1.5-2.3c0.3,0.2,0.5,0.4,0.8,0.5c1.2,0.9,2.6,1.4,4.2,1.7c0.4,0.1,0.8,0,1.3-0.1c-0.1,1.1-0.1,2.2,0,3.3
			c0.2,1.7,0.8,3.2,2.1,4.3c0.9,0.9,2,1.7,3.1,2.4c1.2,0.9,2.7,1.1,4.1,0.4c0.9-0.4,1.8-0.9,2.6-1.5c2.1-1.5,3.9-3.3,5.5-5.3
			c1.7-2,3.3-4.1,4.9-6.1l1.3,1.4c0.7,0.8,1.2,1.6,1.6,2.5c0.3,0.8,0.5,1.6,0.1,2.3l-3.2,1.6c-0.8,0.6-1.7,1.1-2.5,1.8
			c-0.8,0.7-1.2,1.5-1.3,2.4c0.9,1.9,2.3,2.6,4,1.9c2.8-1,4.9-2.9,5.3-6l0.3-1c0.4-0.3,0.8-0.4,1-0.6l6.7-4.2
			c0.8-0.6,1.6-1.2,2.2-2.1c0.3-0.5,0.5-0.9,0.3-1.5C363.4,44.1,363,43.6,362.3,43.5z M333.7,36c0.3-0.2,0.8-0.3,1,0.2
			c-0.8,0.3-1.5,0.4-2.2,0.6C333,36.5,333.3,36.2,333.7,36z M334.4,40.1c0.5-0.5,0.8-0.8,1.3-1.1c0.2-0.2,0.5-0.2,0.8-0.3
			c0.7,1.4,0.6,2.7,0.2,4c-0.7,2-1.8,3.6-3.5,4.7c-0.5,0.4-1,0.6-1.6,0.7c-0.2,0.1-0.5,0-0.8-0.1c0-0.2-0.1-0.3-0.1-0.4
			C331.4,44.8,332.5,42.2,334.4,40.1z M260.5,67c0.3-0.2,0.7-0.3,1-0.6C261.4,66.9,261,67,260.5,67z M331.7,56.6
			c-0.1-0.1-0.3-0.1-0.4-0.1l0.1-0.1C331.5,56.4,331.6,56.4,331.7,56.6L331.7,56.6z M349.5,55.5c-0.8,1.2-1.9,2-3.2,2.6
			c-0.3-0.3-0.1-0.5,0-0.6c0.8-0.8,1.6-1.4,2.5-1.9C349,55.5,349.3,55.5,349.5,55.5c-0.2-0.5-0.2-0.5,0.3-0.7L349.5,55.5z
			 M402.1,52.8h-0.7C401.7,53.1,401.8,53,402.1,52.8z M389.6,59.4C389.6,59.4,389.5,59.4,389.6,59.4
			C389.6,59.5,389.6,59.4,389.6,59.4z M402.1,52.8l0.6-0.3h-0.6V52.8z M460.5,39.4l1.2,0.8c0.2-0.1,0.3-0.2,0.3-0.3
			c0.5-1.3,0.1-2.4-1.1-3.2l-0.7-0.5c-0.5-0.3-1-0.4-1.7-0.3c-1.2,0.3-2.3,0.8-3.4,1.7c-1.8,1.4-3.3,3.2-4.5,5.2l-3.3,6.3l-0.7,0.9
			v-1.5c0.1-1.7,0.1-3.3,0.1-4.9c0-0.6,0-1-0.1-1.5c-0.1-0.7-0.4-1.2-1-1.6l-1.2-0.9l-0.5,0.7c-0.1,0.3-0.1,0.7-0.1,0.9
			c0,0.1,0,0.1,0,0.2c-0.9-0.7-1.9-1.1-3.1-1.3c-1.5-0.2-3-0.3-4.5-0.1c-0.4,0-0.7,0.2-1-0.2c0.2-0.8,0.3-1.8,0.4-2.7
			c0.8-5.6,1.7-11.3,2.3-16.9c0.3-2.9,0.4-5.8,0.2-8.8c-0.1-1.5-0.5-3-1.3-4.3c-0.2-0.4-0.6-0.8-0.8-1c-0.5-0.5-0.9-0.8-1.3-1.1
			c-0.7-0.5-1.3-0.6-2-0.2c-0.4,0.2-0.7,0.4-1,0.8c-0.4,0.4-0.8,0.8-1.2,1.4c-1.6,2-2.8,4.2-4,6.6c-5.2,9.9-9.9,19.9-13.5,30.5
			l-0.7,1.5c-0.4,0.2-0.7,0.4-1.1,0.5c-9,3-17.3,7.5-25.1,12.8c-1.1,0.8-2.2,1.6-3.1,2.4c-0.3,0.2-0.6,0.5-0.5,1
			c0.4,0.3,0.8,0.7,1.3,1.2c2-1.3,3.8-2.7,5.8-3.9c-0.5-0.1-0.9,0.2-1.4,0.4l-1.4,0.6c-0.2,0.4-0.6,0.6-0.9,0.6
			c0.2-0.4,0.6-0.6,0.9-0.6c0.3-0.3,0.5-0.6,0.8-0.8c4.1-2.6,8.4-4.9,13-6.7l0.9-0.2l0.7-0.3H402c0.3-0.3,0.5-0.3,0.7,0l0.6-0.3h0.1
			c0.6-0.2,1.1-0.4,1.6-0.7c1.7-0.6,3.3-1.2,4.9-1.9c0.2-0.1,0.5-0.3,0.7,0.1c-0.4,0.8-0.7,1.8-1,2.7l-2.3,6.4l-0.2,1.1
			c0,0.4,0.2,0.7,0.6,0.8c0.4,0.3,0.7,0.1,1-0.3c0-0.1,0.1-0.3,0.2-0.5c0.7-1.9,1.4-3.8,2.5-5.3c1.2-1.9,2.3-3.8,3.2-5.8
			c0.1-0.4,0.3-0.8,0.6-1.1c0.6-0.3,1.1-0.6,1.8-0.8c4.2-1.4,8.6-2.3,13-3.4c0.3-0.1,0.5,0,0.8,0.1c0,0.6,0.1,1.1,0,1.6
			c-0.2,2.3-0.5,4.5-0.6,6.8c-0.2,3.9-0.4,7.9-0.1,11.8c0.1,1.1,0.2,2.3,0.4,3.5c0.2,0.9,0.6,1.8,0.8,2.7c0.3,0.7,0.7,1.2,1.3,1.7
			l2.1,1.4c0.5,0.3,1,0.6,1.7,0.1c-0.2-0.5-0.3-0.9-0.4-1.4c-0.7-0.4-1.3-0.8-2-1.2l-0.4-1.4c-0.5-1.9-0.6-3.8-0.6-5.8
			c0.1-3,0.3-6.1,0.6-9.1c0.3-3.4,0.7-6.8,1-10.2l0.3-1.4c1.8-0.5,5.4-0.6,6.9-0.3c0.7,0.2,1.3,0.5,1.8,0.9
			c-0.1,0.7-0.1,1.4-0.2,2.1c-0.3,2.3-0.4,4.5-0.2,6.8c0,0.9,0.2,1.8,0.4,2.6c0.1,0.6,0.3,1.2,0.8,1.5c0.8,0.4,1.5,0.8,2.4,1
			c0.1-0.2,0.3-0.3,0.4-0.4l0.5-1c0.3-0.8,0.6-1.8,0.9-2.6c0.9-2.7,2.2-5.3,3.6-7.9c1.3-2.2,2.8-4.1,4.9-5.8
			c0.8-0.7,1.8-1.2,2.9-1.5C460.3,38.6,460.4,38.9,460.5,39.4z M384.8,61.6c0.3-0.3,0.6-0.5,0.8-0.6
			C385.4,61.5,385.1,61.5,384.8,61.6z M433.5,5.9l-1.3,0.8C432.3,6.1,432.8,5.7,433.5,5.9z M434.8,15.4c-0.4,4.6-1.3,9.2-2,13.7
			c-0.6,3.6-0.9,7.1-1.4,10.6l-0.2,0.8c-0.1,0.1-14.5,3.7-14.5,3.7c0-0.2,0-0.5,0.1-0.6c3.9-10.5,8.5-20.5,14.1-30.2
			c0.7-1.2,1.5-2.4,2.3-3.6c0.4-0.6,0.8-1,1.4-1.5c0.1,0.4,0.3,0.7,0.3,0.9C434.8,11.4,434.9,13.4,434.8,15.4z M554.7,43.7l-0.5,0.7
			l-1.1,1.8l-6.8,9.9l-1.1,1.5c-0.7,0.7-1.5,1.2-2.4,1.5c-1.7,0.5-3.3-0.4-3.7-2.2c-0.2-0.7-0.3-1.3-0.4-2.1c-0.2-3,0.2-6,0.6-9.1
			c0.2-1.5,0.8-2.7,1.6-4c3.8-5.9,7.4-12,10.4-18.5l2.1-5c0.7-1.6,1-3.3,0.8-5.1c-0.1-1.8-0.7-3.4-2.2-4.5c-0.7-0.6-1.2-0.7-2-0.3
			c-1.7,0.8-2.9,2.1-3.9,3.6c-2.8,4-5.1,8.4-6.5,13c-1,3.3-1.8,6.5-2.5,9.8l-1,5.3l-1.1-0.7c-1.7-0.8-3.4-0.9-5.1-0.1
			c-0.8,0.4-1.5,0.9-2.1,1.6c-0.8,0.7-1.5,1.5-2.1,2.3c-0.2,0.2-0.4,0.5-0.5,0.7l-2.1,1.9c-1.1,1.1-4.6,5-6.1,5.6
			c-4.7,4.3-5.4-9.6-8.9-7.3c-0.5,0.4-0.8,0.8-1.2,1.2c-1.9,1.9-3.9,5.5-5.5,7.6l-0.8,0.8c-0.2-0.7-0.1-1.1,0-1.7
			c0.3-1.6,0.9-4.9,1.1-6.6c0-0.3,0.1-0.6,0.1-0.8c0,0,0,0,0,0c0,0,0,0,0,0c0-0.3,0-0.6,0-1c-0.1-1-0.7-1.7-1.7-2.1l-0.3,0.6
			c-0.1,0.7-0.2,1.5-0.4,2.4c-0.2,0.2-0.3,0.4-0.5,0.6c-2,2.3-5.6,6.2-8.2,8c-0.8,0.7-1.9,1.2-2.8,1.8c-0.4,0.3-0.8,0.4-1.2,0.1
			c-0.5-1-0.6-1.5-0.7-2.7c0.2-1.9,0.6-3.8,1.1-5.6c0.4-1.6,0.8-3.2,1.3-4.7c0.2-0.8,0.1-1.5-0.2-2.1c-0.4-0.7-0.7-1.2-1.4-1.3
			c-0.6,0.1-1,0.5-1.2,0.9l-0.9,1.6c-1.9,3.5-4,6.9-6.7,10l-1.5,1.8c-0.1-0.6,0-0.8,0-0.9c0.1-0.9,0.2-1.9,0.4-2.7
			c0.4-2.2,0.8-4.3,1.4-6.5c0.2-0.8,0.2-1.4-0.4-2c-0.3-0.2-0.7-0.3-0.9-0.4c-0.4-0.1-0.6-0.3-0.8-0.4c-0.7,0.5-0.9,1.1-1.2,1.7
			c-0.2,0.5-0.4,1.1-0.6,1.6c0,0-0.1,0-0.1,0c-1.4,0.7-2.9,1-4.4,1.3c-0.8,0.2-1.6,0.2-2.5-0.5l-0.4-1.4c-0.4-1.2-0.9-2.3-2-3.2
			c-0.3-0.3-0.7-0.6-1.2-0.5c-0.8,0.3-0.5,0.9-0.7,1.5c-0.4-0.2-0.7-0.4-1.3-0.6c-0.3,0.3-0.7,0.4-0.8,0.7c-0.4,0.5-0.7,0.9-0.8,1.5
			c-0.9,2.5-1.3,5.2-1,7.9c0.3,2.9,1.8,4.7,4.5,5.4c1.2-0.3,2-1.1,2.5-2.2c0.7-1.2,1-2.5,1.2-3.9l0.3-3.2l0.9,0.5
			c0.9,0.6,2,0.8,3,0.5c0.7-0.2,1.3-0.4,1.9-0.7c-0.2,1-0.3,1.9-0.4,2.9c-0.2,1.1-0.1,2.2,0.1,3.3c0.1,1.2,0.6,2.3,1.8,2.8
			c0.3,0.1,0.5,0.3,0.8,0.5c0.8,0.6,1.4,0.5,2.2-0.4c0.6-0.5,1-1.1,1.4-1.7c0.9-1.3,1.8-2.7,2.6-4l0.7-1c0.1,0.5,0,0.7,0,0.8
			c-0.1,3.6,1.2,6.1,4.2,7.7c0.8,0.3,1.4,0.4,2.3-0.2l2.1-1.4c2.4-1.7,5.2-4.7,7.5-7.4c-0.1,0.3-0.1,0.6-0.2,0.9
			c-0.3,1.6-0.4,3.2-0.4,4.7c0,1.7,0.8,2.5,2.3,3.1c0.4-0.2,0.7-0.4,0.9-0.7c0.4-0.3,0.7-0.8,0.9-1.1c1.6-2.2,3.8-5.8,5.7-7.7l1.1-1
			c0.1,0.1,0.1,0.2,0.2,0.2l0.3,1c0.7,2.7,2.4,5.3,4.9,6.1c1.1,0.4,2.3,0.4,3.4,0c1.2-0.3,2.3-0.8,3.2-1.7c0.2-0.2,0.5-0.4,0.8-0.8
			c-0.2,1.3-0.1,2.6,0.4,4c0.3,1,0.8,1.8,1.8,2.3c0.4,0.2,0.8,0.6,1.1,0.8c0.4,0.3,0.8,0.4,0.9,0.5c0.9-0.1,1.5-0.5,2-1
			c0.9-0.9,1.9-2,2.7-3c1.2-1.4,2.4-2.9,3.6-4.4l0.8-0.8c0.3,0.8,0.3,1.3,0.4,2c0.2,1.2,0.4,2.5,0.8,3.7c0.2,0.8,0.7,1.6,1.1,2.3
			c0.6,0.8,1.2,1.5,1.9,2.2c1.6,1.6,3.8,2.2,6,0.6c0.7-0.5,1.3-1.1,2-1.8l1.1-1.5c0.7-1,1.4-2.2,2.3-3.2c1.2-1.6,4-6.3,4.9-8.1
			c0.2-0.4,0.3-0.8,0.4-1.3C555.6,44.1,555.4,43.7,554.7,43.7z M545.2,22.1c1-2.4,2.3-4.8,3.7-7c0.5-0.8,1.1-1.7,1.8-2.5l0.8-0.8
			c0.4,1.6,0,2.9-0.3,4.1c-0.4,1.9-1.1,3.7-1.9,5.3c-2.2,4.8-4.8,9.3-7.6,13.8l-0.3,0.5c-0.1-0.3-0.1-0.4-0.1-0.5
			C542.4,30.7,543.5,26.3,545.2,22.1z M464.5,51.1c-0.5,1.1-0.8,1.4-1.9,1.9c-0.5-0.3-0.5-0.7-0.5-1.1c0-1,0-2.1,0.1-3.1
			c0-0.8,0.1-1.4,0.2-2.2h-0.3l-0.7,3h-0.1c-0.1-0.4-0.1-0.7-0.1-0.9c0.1-0.9,0.2-1.9,0.4-2.8c0.2-1.2,0.7-2.3,1.1-3.3
			c0.1-0.2,0.3-0.3,0.5-0.5c1.2,0.5,1.3,2,2.3,2.5C465.8,47,465.6,49.1,464.5,51.1z M528,43.7l0.3-0.3l0.1-0.1v0.1
			C528.2,43.5,528.1,43.7,528,43.7L528,43.7z M531,52.4c-0.1-0.2-0.1-0.3-0.1-0.5h-0.3l0.3-0.4V52h0.3L531,52.4z M531.2,52v-0.3h0.2
			L531.2,52z M531.8,50.7h-0.3l0.3-0.2V50.7z M531.9,51.1v-0.4h0.2C532,50.9,531.9,51,531.9,51.1z M532.5,50.4l-0.3,0.3v-0.3h-0.3
			l0.3-0.3v0.3H532.5v-0.3C532.5,50.1,532.6,50.2,532.5,50.4L532.5,50.4z M535.6,44.3c-0.6,0.8-1.1,1.5-1.8,2.3l-4.9,5.8
			c-0.8,1-1.9,2-3.2,3c0-0.8,0.2-1.2,0.3-1.7c1.1-3.6,3-6.8,5.4-9.7c0.7-0.8,1.5-1.5,2.5-1.9c0.7-0.3,0.7-0.3,1.8-0.1
			C535.9,42.8,535.6,43.4,535.6,44.3z M594.9,30.7h-0.4v0.2C594.8,30.8,594.9,30.8,594.9,30.7L594.9,30.7z M622.9,23.4l0.3-0.4v-0.2
			l-0.1,0.1C623,23.1,623,23.3,622.9,23.4z M656.8,47.4c0,0-0.1,0.1-0.2,0.1c-0.1,0.1-0.2,0.2-0.2,0.3c0.1,0,0.2-0.1,0.3-0.2
			C656.7,47.5,656.8,47.4,656.8,47.4z M655.1,49.4l-0.3,0.3h0.3V49.4z M654.1,50.5c-0.1,0.1-0.2,0.2-0.3,0.2h0.4
			C654.2,50.7,654.1,50.6,654.1,50.5z M654.7,49.8l-0.3,0.2h0.3V49.8z M654.4,50l-0.3,0.4h0.3V50z M654.8,49.7L654.8,49.7
			L654.8,49.7C654.7,49.8,654.7,49.7,654.8,49.7z M653.1,51.4l-0.3,0.2h0.3V51.4z M655.4,49.1c-0.1,0.1-0.2,0.2-0.2,0.3
			c0,0,0.1,0.1,0.2,0.1V49.1z M652.2,52.4l-0.3,0.2h0.3V52.4z M653.8,50.7l-0.3,0.3h0.3V50.7z M653.5,50.9l-0.3,0.4h0.3V50.9z
			 M652.6,51.9h0.3v-0.3L652.6,51.9z M660.3,43.7c-0.2,0.1-0.5,0.2-0.7,0.4c-0.7,0.8-1.6,1.4-2.1,2.4c0,0.1-0.1,0.1-0.1,0.1
			c0.1,0.1,0.1,0.2,0.2,0.2c0,0-0.1,0.1-0.2,0.1h0.1l-0.4,0.3c0,0.7-0.5,1-0.9,1.3v-0.7c-0.3,0.2-0.6,0.6-0.6,0.9h0.3l-0.4,0.3h0.1
			c-0.2,0.1-0.3,0.3-0.4,0.4l-0.3,0.3l-0.4,0.3h0.1l-0.1,0.1c-0.2,0.1-0.2,0.2-0.3,0.3l-0.3,0.3c-0.1,0.1-0.3,0.2-0.4,0.4v-0.1
			l-0.3,0.4l-0.4,0.3h0.1c-0.1,0.1-0.3,0.2-0.4,0.4v-0.1l-0.3,0.4l-0.4,0.3h0.1c-0.2,0.1-0.3,0.3-0.4,0.4v-0.4l-0.3,0.4
			c-0.5,0-0.8,0.2-0.9,0.6c-0.1,0.2-0.2,0.3-0.4,0.4l-1.5,0.8c-0.8,0.4-1.7,0.9-2.6,1.2c-1.1,0.4-2.3,0.5-3.2-0.5
			c-0.5-2-0.3-4.1,0.4-5.9c0.5-0.1,0.7,0.3,1,0.4c1,0.6,2.1,0.6,3.1,0c0.4-0.2,0.7-0.5,1.1-0.8c1.2-0.9,2.3-2.2,3-3.6
			c1.2-2.4,1.3-4.9,0.1-7.3c-0.3-0.5-0.6-0.9-0.9-1.2c-0.6-0.5-1.1-0.9-1.6-1.5c-0.8-0.8-1.7-1-2.7-0.7c-0.7,0.2-1.4,0.6-2,1
			c-1,0.8-2,1.7-2.6,2.8c-1.1,1.8-1.9,3.7-2.5,5.7c0,0,0,0.1,0,0.1c-1,1.8-4.1,6.5-5.4,8c-0.7,0.8-1.4,1.5-2.3,2
			c-1.1,0.7-2.3,0.8-3.5,0c-0.5-0.8-0.7-1.5-0.7-2.3c-0.2-0.8-0.2-1.7-0.4-2.5c-0.1-0.8-0.3-1.7-0.6-2.4c-0.5-1.2-1.1-2.3-2.4-2.6
			c-0.8,0-1.3,0.5-1.9,0.9c-1.7,1.3-3.2,3-4.6,4.7l-3.4,4.3c-0.2,0.2-0.3,0.5-0.8,0.2l0.2-1.6c0.4-2,0.9-3.9,1.2-5.9
			c0.3-1.6,0.8-3.1,2.2-4.2l1.1-1.3l0.7-0.8c0.3-0.8,0.8-1.5,1.4-2.1c3.2-3.6,6.2-7.1,9-11l1.5-1.9c2.7-3.2,4.6-6.8,5.6-10.9
			c0.5-1.5,0.6-3,0.6-4.5c0-1.4-0.4-2.6-1.2-3.7c-0.7-0.9-1.6-1.7-2.4-2.4c-0.3-0.3-0.7-0.4-0.9-0.5c-1.3-0.4-2.5-0.2-3.7,0.6
			c-0.8,0.5-1.5,1.1-2.1,1.9c-1.7,1.9-3.1,3.8-4.3,6c-2.9,5.2-5.5,10.5-7.4,16.2c-0.9-0.1-1.8-0.1-2.6-0.1c-1.5,0-3.1,0.1-4.7,0.2
			l0.4-0.9l1.5-3.4c0.5-1.1,0.8-2.3,0.9-3.5c0.1-0.8-0.2-1.5-0.8-2c-0.6-0.6-1.2-0.9-1.8-1.4c-1.4,0.2-2.3,1-3.1,2
			c-0.7,0.8-1.3,1.8-2,2.8c-1,1.9-2.1,3.9-2.9,6c-0.3,0.8-0.8,1.6-1.1,2.3l-6.1,1.1c-0.3,0.1-0.6,0-0.8,0l0.3-0.3l0.9-0.3
			c0.2,0,0.5-0.1,0.7-0.2c-0.2-0.1-0.3-0.1-0.5-0.1l-4.3,1l-1,0.4c-0.6,0.3-0.8,0.7-0.8,1.2c0.2,0.7,0.7,1,1.3,1.4
			c0.9-0.6,2.1-0.7,3.1-0.8c1-0.3,2.2-0.5,3.3-0.6c0.9-0.1,2-0.7,3.1-0.4c0,0.3,0,0.5-0.1,0.7c-1.3,3.8-2.3,7.6-2.7,11.5
			c-0.1,0.7-0.3,1.2-0.7,1.8l-0.6,1.1l0.7,0.9c0.2,1.8,0.4,3.3,0.5,4.8c0.2,1.2,0.5,2.3,1,3.5c0.5,1,1.3,2,2.3,2.6
			c1.4,1,3,1,4.4,0.1l1.5-1.4l3.7-3.7c0.3-0.5,0.8-0.9,1-1.5c0.4-0.7,1.1-1.8,1.8-3c0,0.2,0,0.4,0,0.6c-0.2,1.5-0.1,2.9,0.2,4.3
			c0.3,1.9,0.9,2.5,2.9,2.9c1-0.5,1.1-0.5,1.7-1.3c1-1.3,2.1-2.5,3-3.8c1.4-2,3.1-3.8,5-5.3c0.3-0.2,0.6-0.6,1-0.4l0.3,1.2
			c0.1,0.8,0.2,1.8,0.4,2.6c0.5,2.7,2,4.5,4.7,5.3c1.9,0.5,3.4,0.2,4.8-0.9c0.5-0.5,0.9-0.8,1.3-1.3c0.7-0.9,1.9-2.5,3-4.2
			c0,0.5,0,1,0,1.6c0.2,1.7,0.8,3.2,2.1,4.3c0.9,0.9,2,1.7,3.1,2.4c1.2,0.9,2.7,1.1,4.1,0.4c0.9-0.4,1.8-0.9,2.6-1.5
			c2.1-1.5,3.9-3.3,5.5-5.3c1.7-2.1,3.4-4.1,5-6.2c0.2-0.3,0.4-0.6,0.5-0.9C661.2,44.7,661,44,660.3,43.7z M646.7,36
			c0.3-0.2,0.8-0.3,1,0.2c-0.8,0.3-1.5,0.4-2.2,0.6C646,36.5,646.3,36.2,646.7,36z M647.4,40.1c0.5-0.5,0.8-0.8,1.3-1.1
			c0.2-0.2,0.5-0.2,0.7-0.3c0.7,1.4,0.6,2.7,0.2,4c-0.7,2-1.8,3.6-3.5,4.7c-0.5,0.4-1,0.6-1.6,0.7c-0.2,0.1-0.5,0-0.7-0.1
			c0-0.2-0.1-0.3-0.1-0.4C644.4,44.8,645.5,42.2,647.4,40.1z M623.8,20.7C623.8,20.6,623.8,20.5,623.8,20.7L623.8,20.7
			c0,0.2,0,0.5-0.3,0.6L623.8,20.7z M623.5,21.4c0,0.3-0.1,0.5-0.3,0.7L623.5,21.4z M617,38.5c0.5-2,1.1-4,1.8-6l0.6,0.8
			c0.1,0.2,0.3,0.2,0.6,0.4c0.1-0.4,0.2-0.7,0.1-0.9c-0.1-0.6-0.3-1.3-0.7-1.8c0.9-2.6,1.9-5.2,3.1-7.7c0.2-0.4,0.4-0.8,0.7-1
			c0,0.2,0.1,0.4,0.1,0.6c0.3-0.5,0.7-0.9,0.8-1.5c1.6-3.2,3.3-6.3,5.3-9.3c0.6-0.8,1.2-1.7,1.9-2.5c0.6-0.8,1.2-1.3,2.2-1.5
			c0.4,0.5,0.5,1,0.5,1.7c0.1,1.3-0.2,2.7-0.5,4c-0.8,3.7-2.3,7-4.3,10.2c-2.2,3.3-4.5,6.4-7,9.5l-4.3,5l-0.8,0.8
			C616.9,38.8,616.9,38.7,617,38.5z M589.6,32.4L589.6,32.4L589.6,32.4L589.6,32.4z M590.3,31.9h1.1
			C591.2,32.2,590.8,32.2,590.3,31.9z M607.5,21.5c-0.1,1.7-1.2,4.8-3.1,7.7c-0.3,0.1-0.6,0.1-0.9,0.1
			C603.9,27.1,606,23.1,607.5,21.5z M602.6,32.2c-0.2,0.9-0.2,1-1.4,2.5C601.6,33.9,601.6,32.8,602.6,32.2z M611.1,44l-0.9,1.4
			c-1.4,2.8-4.4,7.9-6.4,10.3l-2.3,2.5c-0.6,0.5-1,0.9-1.8,0.9c-1-0.7-1.3-1-1.7-2c-0.5-1.2-0.8-2.4-0.8-3.7c-0.1-2.3,0-4.7,0.4-6.9
			c0.2-0.7,0.3-1.4,0.6-2.1c0.6-1.2,1-2.3,1.7-3.5l2.8-4.7c0.9-1.5,2-3,3-4.5l1.7-0.3l2.1-0.2c1.6-0.2,3.1-0.2,4.6-0.2
			C612.7,35.4,611.8,39.7,611.1,44z M644.7,56.6c-0.1-0.1-0.3-0.1-0.4-0.1l0.1-0.1C644.5,56.4,644.6,56.4,644.7,56.6L644.7,56.6z
			 M652.6,52l-0.3,0.3h0.3V52z M652.2,52.3L652.2,52.3L652.2,52.3L652.2,52.3z M653.1,51.3L653.1,51.3L653.1,51.3L653.1,51.3z
			 M655.7,48.9l-0.3,0.2h0.3V48.9z M655.7,48.8L655.7,48.8L655.7,48.8L655.7,48.8z M654.1,50.4L654.1,50.4L654.1,50.4L654.1,50.4z
			 M657.5,46.7c-0.1,0.1-0.2,0.2-0.3,0.2h0.3V46.7z M655.1,49.4L655.1,49.4L655.1,49.4L655.1,49.4z M657,47.2h0.3v-0.3L657,47.2z
			 M794.8,52.3L794.8,52.3L794.8,52.3L794.8,52.3z M797.3,49.8l-0.3,0.2h0.3V49.8z M794.8,52.4l-0.3,0.2h0.3V52.4z M797.4,49.7
			L797.4,49.7L797.4,49.7C797.3,49.8,797.3,49.7,797.4,49.7z M803,43.7c-0.2,0.1-0.5,0.2-0.7,0.4c-0.8,0.8-1.6,1.4-2.1,2.4
			c0,0.1-0.1,0.1-0.1,0.1c0.1,0.1,0.1,0.2,0.2,0.2c0,0-0.1,0.1-0.2,0.1h0.1l-0.4,0.3c0,0.7-0.5,1-0.9,1.3v-0.7
			c-0.3,0.2-0.6,0.6-0.6,0.9h0.3l-0.4,0.3h0.1c-0.2,0.1-0.3,0.3-0.4,0.4l-0.3,0.3l-0.4,0.3h0.1l-0.1,0.1c-0.2,0.1-0.2,0.2-0.3,0.3
			l-0.3,0.3c-0.1,0.1-0.3,0.2-0.4,0.4v-0.1l-0.3,0.4l-0.4,0.3h0.1c-0.1,0.1-0.3,0.2-0.4,0.4v-0.1l-0.3,0.4l-0.4,0.3h0.1
			c-0.2,0.1-0.3,0.3-0.4,0.4v-0.4l-0.3,0.4c-0.5,0-0.7,0.2-0.9,0.6c-0.1,0.2-0.2,0.3-0.4,0.4l-1.5,0.8c-0.8,0.4-1.7,0.9-2.6,1.2
			c-1.1,0.4-2.3,0.5-3.2-0.5c-0.5-2-0.3-4.1,0.4-5.9c0.5-0.1,0.7,0.3,1,0.4c1,0.6,2.1,0.6,3.1,0c0.4-0.2,0.8-0.5,1.1-0.8
			c1.2-0.9,2.3-2.2,3-3.6c1.2-2.4,1.3-4.9,0.1-7.3c-0.3-0.5-0.6-0.9-0.9-1.2c-0.6-0.5-1.1-0.9-1.6-1.5c-0.7-0.8-1.7-1-2.7-0.7
			c-0.8,0.2-1.4,0.6-2,1c-1,0.8-2,1.7-2.6,2.8c-1.1,1.9-2,3.8-2.5,5.8c0,0,0,0,0,0c-1.4,0.3-2.8,0.8-4.1,1.4l-1.1,0.6l-0.5-0.8
			l-1-1.4c-1-1-2.1-1.1-3.4-0.5c-0.6,0.4-1.1,0.8-1.6,1.2c-0.9,0.9-1.9,1.9-2.7,2.9l-3.1,3.8l-1,1v-1.1c0.2-1.7,0.5-3.3,0.6-4.9
			c0.1-1.5,0.7-2.7,1.8-3.9c3.1-3.8,5.7-7.9,8.3-12c3.8-5.9,6.9-12.2,9.3-18.8c0.7-1.7,1.3-3.5,1.6-5.3c0.3-1.9-0.2-3.5-1.4-4.9
			c-1-1.2-2.3-1.6-3.8-0.9c-1.1,0.4-2.1,1.1-2.9,1.9c-1.5,1.5-2.8,3.1-3.8,5c-1.5,2.7-2.9,5.4-4.2,8.3c-0.9,2-1.7,3.9-2.5,5.9
			c-0.5,1-0.9,2.1-1.3,3.1l-1.2,2.8c-1.7,5.1-2.8,10.4-3.6,15.7c0,0,0,0,0,0c-1.4,0.7-2.9,1-4.4,1.3c-0.8,0.2-1.6,0.2-2.5-0.5
			l-0.4-1.4c-0.4-1.2-0.9-2.3-2-3.2c-0.3-0.3-0.7-0.6-1.2-0.5c-0.8,0.3-0.5,0.9-0.7,1.5c-0.4-0.2-0.8-0.4-1.3-0.6
			c-0.3,0.3-0.7,0.4-0.7,0.7c-0.4,0.5-0.7,0.9-0.8,1.5c-0.3,0.8-0.5,1.7-0.7,2.5c-0.1,0.3-0.3,0.5-0.5,0.8c-1.3,1.7-3.3,4.5-4.6,6.2
			c-1.4,1.5-2.9,2.9-4.7,4c-0.8,0.6-1.8,1-2.8,1.2c-1.5,0.3-2.6-0.1-3.4-1.4c-0.5-0.8-0.8-1.6-1-2.4c-0.7-2.2-0.5-4.3-0.3-6.6
			c0.1-1.1,0.6-2.1,1.3-2.9c1.6-1.9,3.1-3.8,4.7-5.5c2.9-3.5,5.4-7.1,7.7-11c2.4-3.9,4-8.3,5.3-12.8c0.6-1.9,0.9-3.8,0.7-5.7
			c-0.2-1.8-0.4-3.6-1.7-5.1c-0.2-0.2-0.3-0.5-0.5-0.8c-0.9-1.6-2.6-2.2-4.3-1.6c-0.7,0.3-1.2,0.7-1.8,1c-1.3,0.9-2.3,2.3-3.3,3.6
			c-1.9,2.7-3.4,5.7-4.6,8.8c-2.5,6.4-4.5,13-5.9,19.7c-0.6,3.3-1.4,6.8-1.6,10.2c-1,0.3-2,0.6-3,1l-5.9,2.9
			c-0.3,0.2-0.5,0.5-0.8,0.2c0-0.1-0.1-0.2-0.1-0.3c0.2-1,0.4-2,0.5-3c0.1-0.8,0.2-1.4,0.1-2.2c-0.2-1.3-0.2-2.6-0.1-3.9
			c0.1-0.4,0.1-0.8,0.1-1.2c0.1-3.4,0.1-6.8-0.3-10.1c-0.1-1.1-0.3-2.3-0.6-3.4c-0.4-1.1-1-2-2.3-2.1c-0.9,0.4-1.3,1.1-1.8,1.8
			l-4.5,7.8c-2.1,3.7-4.2,7.2-6.7,10.7c-1.6,2.3-3.4,4.5-5.5,6.5c-1.2,1.1-2.6,2.2-4.3,2.8c-0.8,0.3-1.5,0.5-2.3,0.6
			c-1.8,0.1-2.8-0.7-3.2-2.4c-0.3-1.3-0.5-2.6-0.3-4c0.2-2,0.5-3.9,1-5.9c2.3-8.2,6.3-15.5,11.5-22.2c2-2.6,4.4-4.9,7.2-6.7
			c0.8-0.5,1.5-0.9,2.3-1.3c0.7-0.3,1.5-0.4,2.3-0.1c0.1,0.4,0.4,0.7,0.5,0.9c0.2,0.8,0.4,1.5,0.4,2.2c0.1,1.6,0,3.1-0.1,4.6
			c0,0.7-0.1,1.2,0.3,1.9c0.3,0.1,0.5,0.2,0.8,0.2c0.1-0.2,0.2-0.3,0.2-0.4l0.6-5.2v-1.6c0-1.4-0.6-2.6-1.5-3.7
			c-1.3-1.4-2.9-2-4.7-1.3c-0.8,0.3-1.6,0.7-2.3,1c-2.2,1.2-4,2.8-5.8,4.5c-6.9,6.8-11.6,14.8-14.4,24.1c-0.7,2.2-1,4.4-1.2,6.7
			c-0.2,1.6-0.1,3.1,0.3,4.7c0.8,2.8,2.6,4.7,5,6.3c1,0.6,2.2,0.7,3.4,0.5c2.1-0.5,3.9-1.5,5.5-2.9c1.5-1.2,2.9-2.7,4.1-4.3
			c2-2.4,3.7-5.1,5.3-7.8c1.5-2.6,3.2-5.3,4.1-8.2l0.3-0.6l3.1-5.2c0.1-0.2,0.3-0.5,0.6-0.8c1.1,7.5,0.4,19.4-2,25.9l-1.1,0.8
			c-4,2.5-8,5.3-11.6,8.5c-2.9,2.5-5.5,5.2-7.8,8.3c-1.1,1.6-2.2,3.4-2.7,5.3c-0.2,0.8-0.4,1.5-0.5,2.2c-0.1,0.6,0.2,1,0.6,1.4
			c1.1,1.3,2.5,1.9,4.2,1.7c2.2-0.3,4.1-1,6.1-2.1c3.2-1.8,5.8-4.2,8-7.2c4.2-5.8,7-12.2,8.8-19.2c1.6-1,3.3-2,5.2-2.6l1.2-0.3v0.4
			c0.8-0.5,1.7-0.8,2.5-1.2c0.4-0.2,0.8-0.3,1.2-0.5c0,1.4,0.2,2.7,0.5,4c0.9,3.4,2.5,6.1,5.7,7.7c1.1,0.7,2.3,0.9,3.5,0.7
			c1.2-0.3,2.3-0.7,3.4-1.3c0.8-0.6,1.7-1.1,2.4-1.8c1.9-1.6,3.9-4.1,5.5-6.5c0,0.1,0,0.2,0,0.4c0.3,2.9,1.8,4.7,4.5,5.4
			c1.2-0.3,2-1.1,2.5-2.2c0.7-1.2,1-2.5,1.2-3.9l0.3-3.2l0.9,0.5c0.9,0.6,2,0.8,3,0.5c0.8-0.2,1.6-0.5,2.3-0.8
			c-0.1,1.9-0.2,3.7-0.1,5.6c0,0.8,0.2,1.6,0.3,2.4c0.2,0.8,0.7,1.6,1.5,2l2,1.1c0.6-0.1,0.8-0.5,1.1-0.8l1.1-1.6
			c1.8-2.3,3.5-4.8,5.3-7.1c0.7-0.9,1.5-1.6,2.3-2.3c0.2-0.2,0.6-0.2,0.8-0.3c0.6,0.8,0.7,1.5,0.7,2.3l-2,1.8
			c-2,1.7-3.7,3.7-4.8,6.1c-0.3,0.6-0.5,1.2-0.6,1.8c-0.2,0.8,0.1,1.5,0.8,1.9l1.2,0.8c0.6,0.3,1,0.3,1.5-0.1c1.6-1.1,3.1-2.4,4-4.3
			c0.8-1.4,1.4-2.9,1.7-4.6l0.4-1.7c1.6-1.3,3.1-2.2,4.4-2.6c-0.3,1.7-0.4,3.4-0.3,5.2c0.2,1.7,0.8,3.2,2.1,4.3
			c0.9,0.9,2,1.7,3.1,2.4c1.2,0.9,2.7,1.1,4.1,0.4c0.9-0.4,1.8-0.9,2.6-1.5c2.1-1.5,3.9-3.3,5.5-5.3c1.7-2.1,3.4-4.1,5-6.2
			c0.2-0.3,0.4-0.6,0.5-0.9C803.8,44.7,803.6,44,803,43.7z M789.4,36c0.3-0.2,0.8-0.3,1,0.2c-0.7,0.3-1.5,0.4-2.2,0.6
			C788.6,36.5,788.9,36.2,789.4,36z M790,40.1c0.5-0.5,0.8-0.8,1.3-1.1c0.2-0.2,0.5-0.2,0.8-0.3c0.7,1.4,0.6,2.7,0.2,4
			c-0.7,2-1.8,3.6-3.5,4.7c-0.5,0.4-1,0.6-1.6,0.7c-0.2,0.1-0.5,0-0.8-0.1c0-0.2-0.1-0.3-0.1-0.4C787,44.8,788.1,42.2,790,40.1z
			 M771.4,19c1.6-4.1,3.7-8.1,6.5-11.4l2.3-2.4c0.7-0.7,1.4-1.1,2.4-1.5c0.1,1.1,0,2-0.2,2.9c-0.8,3.9-2.2,7.6-3.8,11.3
			c-2.1,4.6-4.5,8.9-7.2,13.1c-1.7,2.6-3.6,5.2-5.3,7.8l-0.7,0.8c0-0.1-0.1-0.2-0.1-0.3C766.9,32.4,768.7,25.5,771.4,19z
			 M729.1,39.6c1.9-8,4-16,7.2-23.6c1-2.5,2.3-5.1,3.8-7.3c0.6-0.8,1.2-1.7,1.9-2.5c0.6-0.8,1.3-1.3,2.3-1.7
			c0.6,1.1,0.8,2.3,0.8,3.4c0.1,1.6-0.2,3.2-0.5,4.8c-1.4,6-3.8,11.5-6.9,16.7c-2,3.2-4.2,6.1-6.7,9l-1.3,1.6
			c-0.1,0.2-0.3,0.3-0.7,0.7C729.1,40.2,729.1,39.9,729.1,39.6z M708.2,56.9c-1.5,3.8-3.4,7.2-5.6,10.5c-1.5,2.1-3.2,3.9-5.1,5.6
			c-2.2,2-4.6,3.4-7.4,4.1c-0.7,0.1-1.3,0.3-2.1,0c0.1-0.3,0-0.6,0.1-0.8l1.3-2.7c1.6-2.6,3.6-4.9,5.7-7c2.9-3,6-5.5,9.3-8.1
			l3.1-2.2l0.9-0.7L708.2,56.9z M750.1,51.1c-0.5,1.1-0.8,1.4-1.9,1.9c-0.5-0.3-0.5-0.7-0.5-1.1c0-1,0-2.1,0.1-3.1
			c0-0.8,0.1-1.4,0.2-2.2h-0.3l-0.8,3h-0.1c-0.1-0.4-0.1-0.7-0.1-0.9c0.1-0.9,0.2-1.8,0.4-2.7l0-0.1c0.1-0.2,0.1-0.3,0.1-0.5
			c0.2-1.1,0.6-2,1-2.9c0.1-0.2,0.3-0.3,0.5-0.5c1.2,0.5,1.3,2,2.3,2.5C751.5,47,751.2,49.1,750.1,51.1z M770.6,56.8L770.6,56.8
			c0.5-1.5,1.8-3.2,3-4.1C773.1,54.4,772,55.9,770.6,56.8z M787.3,56.6c-0.1-0.1-0.3-0.1-0.4-0.1l0.1-0.1
			C787.1,56.4,787.2,56.4,787.3,56.6L787.3,56.6z M799.4,47.4c0,0-0.1,0.1-0.2,0.1c-0.1,0.1-0.2,0.2-0.2,0.3c0.1,0,0.2-0.1,0.3-0.2
			C799.3,47.5,799.4,47.4,799.4,47.4z M797.7,49.4l-0.3,0.3h0.3V49.4z M795.7,51.4l-0.3,0.2h0.3V51.4z M796.7,50.5
			c-0.1,0.1-0.2,0.2-0.3,0.2h0.4C796.8,50.7,796.7,50.6,796.7,50.5z M796.1,50.9l-0.3,0.4h0.3V50.9z M796.4,50.7l-0.3,0.3h0.3V50.7z
			 M797.1,50l-0.3,0.4h0.3V50z M796.7,50.4L796.7,50.4L796.7,50.4L796.7,50.4z M797.7,49.4L797.7,49.4L797.7,49.4L797.7,49.4z
			 M795.7,51.3L795.7,51.3L795.7,51.3L795.7,51.3z M795.2,52l-0.3,0.3h0.3V52z M795.2,51.9h0.3v-0.3L795.2,51.9z M798.3,48.8
			L798.3,48.8L798.3,48.8L798.3,48.8z M800.1,46.7c-0.1,0.1-0.2,0.2-0.3,0.2h0.3V46.7z M798,49.1c-0.1,0.1-0.2,0.2-0.2,0.3
			c0,0,0.1,0.1,0.2,0.1V49.1z M798.3,48.9l-0.3,0.2h0.3V48.9z M799.6,47.2h0.3v-0.3L799.6,47.2z"/>
	</g>
</g>
</svg>
